<svg width="60" height="60" viewBox="0 0 60 60" fill="none" xmlns="http://www.w3.org/2000/svg">
<g clip-path="url(#clip0_0_269)">
<path d="M50 10.594V5C49.9965 2.24 47.76 0.0035 45 0H5C2.24 0.0035 0.0035 2.24 0 5V27C0.00775002 29.5538 1.9435 31.6895 4.484 31.9485L8.243 41.7063C9.236 44.2828 12.1295 45.5663 14.7063 44.5745L38.18 35.532C36.558 39.7688 37.0195 44.5215 39.4255 48.3673L40 49.286V59C40 59.5525 40.4475 60 41 60H59C59.5525 60 60 59.5525 60 59V25.9913C59.9905 22.533 58.6138 19.2195 56.1688 16.7738L50 10.594ZM50 16.5745L53.035 24.453C53.6298 25.9995 52.859 27.7348 51.3128 28.33L49.578 29C49.855 28.3695 49.9985 27.688 50 27V16.5745ZM2 27V5C2 3.3435 3.3435 2 5 2H45C46.6565 2 48 3.3435 48 5V11.356H47.9913L48 11.3788V27C47.9923 27.1745 47.9695 27.3475 47.932 27.518L38.772 18.357C36.713 16.3455 33.4305 16.33 31.353 18.3205C29.275 20.3123 29.1503 23.5923 31.072 25.7348L34.977 30H5C3.3435 30 2 28.6565 2 27ZM14.811 32L7.7 34.7378L6.648 32H14.811ZM13.987 42.7078C12.441 43.3038 10.7048 42.533 10.109 40.987L8.422 36.6L20.359 32V31.994H36.81L38.1098 33.411L13.987 42.7078ZM58 58H42V50H58V58ZM58 48H41.555L41.1213 47.307C38.683 43.4105 38.586 38.489 40.868 34.5C41.084 34.1225 41.031 33.6485 40.737 33.328L32.5423 24.388C31.3203 23.0505 31.389 20.9828 32.6973 19.73C34.006 18.477 36.0748 18.4975 37.3577 19.7755L53.293 35.707L54.707 34.293L51.007 30.593L52.033 30.193C54.6075 29.1998 55.8905 26.3088 54.9 23.7328L51.5153 14.9438L54.7548 18.19C56.8248 20.2595 57.992 23.064 58 25.9913V48Z" fill="#1A5CFF"/>
<path d="M11.4 14C12.836 14 14 12.836 14 11.4V6.6C14 5.164 12.836 4 11.4 4H6.6C5.164 4 4 5.164 4 6.6V11.4C4 12.836 5.164 14 6.6 14H11.4ZM6 11.4V10H8V8H6V6.6C6 6.26875 6.26875 6 6.6 6H11.4C11.7313 6 12 6.26875 12 6.6V8H10V10H12V11.4C12 11.7313 11.7313 12 11.4 12H6.6C6.26875 12 6 11.7313 6 11.4Z" fill="#1A5CFF"/>
<path d="M4.99979 17H8.99979V19H4.99979V17Z" fill="#1A5CFF"/>
<path d="M4.99979 23.0001H8.99979V25.0001H4.99979V23.0001Z" fill="#1A5CFF"/>
<path d="M23.0001 23.0001H27.0001V25.0001H23.0001V23.0001Z" fill="#1A5CFF"/>
<path d="M11 17H15V19H11V17Z" fill="#1A5CFF"/>
<path d="M17.0002 17H21.0002V19H17.0002V17Z" fill="#1A5CFF"/>
<path d="M23.0001 17H27.0001V19H23.0001V17Z" fill="#1A5CFF"/>
<path d="M42 5H44V8H42V5Z" fill="#1A5CFF"/>
<path d="M38.0001 4.99994H40.0001V7.99994H38.0001V4.99994Z" fill="#1A5CFF"/>
<path d="M34 5H36V8H34V5Z" fill="#1A5CFF"/>
<path d="M30 4.99994H32V7.99994H30V4.99994Z" fill="#1A5CFF"/>
<path d="M43.9999 51.9999H45.9999V53.9999H43.9999V51.9999Z" fill="#1A5CFF"/>
</g>
<defs>
<clipPath id="clip0_0_269">
<rect width="60" height="60" fill="white"/>
</clipPath>
</defs>
</svg>
