<svg width="60" height="60" viewBox="0 0 60 60" fill="none" xmlns="http://www.w3.org/2000/svg">
<g clip-path="url(#clip0_0_289)">
<path d="M55 0H5.00004C2.23992 0.00328125 0.00328125 2.23992 0 5.00004V55.0001C0.00328125 57.7601 2.23992 59.9967 5.00004 60H55.0001C57.7601 59.9967 59.9967 57.7601 60.0001 55V5.00004C59.9967 2.23992 57.7601 0.00328125 55 0V0ZM5.00004 2.00004H55.0001C56.6569 2.00004 58.0001 3.34324 58.0001 5.00004V8.00004H2.00004V5.00004C2.00004 3.34312 3.34312 2.00004 5.00004 2.00004ZM55 58H5.00004C3.34324 58 2.00004 56.6568 2.00004 55V9.99996H58.0001V55C58 56.6569 56.6569 58 55 58Z" fill="#1A5CFF"/>
<path d="M46.9997 5.99998C47.552 5.99998 47.9997 5.55229 47.9997 5.00002C47.9997 4.44776 47.552 4.00006 46.9997 4.00006C46.4475 4.00006 45.9998 4.44776 45.9998 5.00002C45.9998 5.55229 46.4475 5.99998 46.9997 5.99998Z" fill="#1A5CFF"/>
<path d="M51 5.99992C51.5522 5.99992 51.9999 5.55222 51.9999 4.99996C51.9999 4.4477 51.5522 4 51 4C50.4477 4 50 4.4477 50 4.99996C50 5.55222 50.4477 5.99992 51 5.99992Z" fill="#1A5CFF"/>
<path d="M55.0001 5.99998C55.5523 5.99998 56 5.55229 56 5.00002C56 4.44776 55.5523 4.00006 55.0001 4.00006C54.4478 4.00006 54.0001 4.44776 54.0001 5.00002C54.0001 5.55229 54.4478 5.99998 55.0001 5.99998Z" fill="#1A5CFF"/>
<path d="M6.99983 21H26.9999C28.1045 21 28.9999 20.1045 28.9999 18.9999V15C28.9999 13.8954 28.1045 12.9999 26.9999 12.9999H6.99983C5.89522 12.9999 4.99979 13.8954 4.99979 15V18.9999C4.9999 20.1045 5.89533 21 6.99983 21ZM6.99983 15H26.9999V18.9999H6.99983V15Z" fill="#1A5CFF"/>
<path d="M53 12.9999H33C31.8954 12.9999 30.9999 13.8954 30.9999 15V18.9999C30.9999 20.1045 31.8954 21 33 21H53C54.1046 21 55.0001 20.1045 55.0001 18.9999V15C54.9999 13.8954 54.1045 12.9999 53 12.9999ZM33 18.9999V15H53V18.9999H33Z" fill="#1A5CFF"/>
<path d="M52.9999 23.0001H6.99983C5.89522 23.0001 4.99979 23.8955 4.99979 25.0001V45C4.99979 46.1046 5.89522 47.0001 6.99983 47.0001H52.9998C54.1044 47.0001 54.9998 46.1046 54.9998 45V25C54.9998 23.8955 54.1044 23.0001 52.9999 23.0001ZM6.99983 45V25H52.9998V45H6.99983Z" fill="#1A5CFF"/>
<path d="M51.9999 49H38C36.3432 49 35 50.3432 35 52C35 53.6568 36.3432 55 38 55H52C53.6568 55 55 53.6568 55 52C54.9999 50.3432 53.6568 49 51.9999 49ZM51.9999 53.0001H38C37.4477 53.0001 37 52.5523 37 52.0001C37 51.4478 37.4478 51.0002 38 51.0002H52C52.5523 51.0002 53 51.4479 53 52.0001C53 52.5523 52.5522 53.0001 51.9999 53.0001Z" fill="#1A5CFF"/>
<path d="M10.0001 29.0001H13.0001C13.5524 29.0001 14.0001 28.5523 14.0001 28.0001C14.0001 27.4478 13.5523 27.0002 13.0001 27.0002H10.0001C9.44781 27.0002 9.00015 27.448 9.00015 28.0001C9.00015 28.5523 9.44793 29.0001 10.0001 29.0001Z" fill="#1A5CFF"/>
<path d="M16.9998 29.0001H28.9998C29.5521 29.0001 29.9997 28.5523 29.9997 28.0001C29.9997 27.4478 29.5521 27.0002 28.9998 27.0002H16.9998C16.4475 27.0002 15.9998 27.448 15.9998 28.0001C15.9997 28.5523 16.4475 29.0001 16.9998 29.0001Z" fill="#1A5CFF"/>
<path d="M36.0002 31H10.0001C9.44781 31 9.00015 31.4477 9.00015 32C9.00015 32.5523 9.44793 32.9999 10.0001 32.9999H36.0002C36.5525 32.9999 37.0001 32.5523 37.0001 32C37.0001 31.4477 36.5525 31 36.0002 31Z" fill="#1A5CFF"/>
<path d="M4.29285 6.70733C4.68332 7.09768 5.31637 7.09768 5.70684 6.70733L5.9998 6.41436L6.29277 6.70733C6.68512 7.08632 7.30891 7.08093 7.69457 6.69515C8.08035 6.30936 8.08574 5.68569 7.70676 5.29335L7.41379 5.00038L7.70676 4.70741C8.08574 4.31507 8.08035 3.69128 7.69457 3.30561C7.30879 2.91983 6.68512 2.91444 6.29277 3.29343L5.9998 3.5864L5.70684 3.29343C5.31449 2.91444 4.6907 2.91983 4.30504 3.30561C3.91926 3.6914 3.91387 4.31507 4.29285 4.70741L4.58582 5.00038L4.29285 5.29335C3.90238 5.68382 3.90238 6.31686 4.29285 6.70733Z" fill="#1A5CFF"/>
</g>
<defs>
<clipPath id="clip0_0_289">
<rect width="60" height="60" fill="white"/>
</clipPath>
</defs>
</svg>
