<svg width="56" height="80" viewBox="0 0 56 80" fill="none" xmlns="http://www.w3.org/2000/svg">
<path d="M3.05469 0L6.77627 3.66697V68.1231L3.05469 71.8729V0Z" fill="white"/>
<path d="M7.52148 4.40039L11.2431 7.61835V64.1819L7.52148 67.4725V4.40039Z" fill="white"/>
<path d="M11.9863 8.06738L15.7079 10.9112V60.8975L11.9863 63.8055V8.06738Z" fill="white"/>
<path d="M30.5943 25.6689L32.8273 27.8691L17.941 42.5371L15.708 40.3369L30.5943 25.6689Z" fill="white"/>
<path d="M33.5719 28.6025L35.8048 30.8027L20.9185 45.4707L18.6855 43.2705L33.5719 28.6025Z" fill="white"/>
<path d="M36.5494 31.5361L38.7823 33.7363L23.896 48.4043L21.6631 46.2041L36.5494 31.5361Z" fill="white"/>
<path d="M55.9382 77.0521L50.3096 77.0065L3.05345 30.8387L3.05345 24.8214L55.9382 77.0521Z" fill="white"/>
<path d="M49.5654 77.0132L43.6109 77.0132L3.0722 36.6698L3.0722 31.5361L49.5654 77.0132Z" fill="white"/>
<path d="M42.8659 77.0068L37.2836 77.0068L3.05823 42.1704L3.05826 37.4033L42.8659 77.0068Z" fill="white"/>
</svg>
