<svg width="66" height="66" viewBox="0 0 66 66" fill="none" xmlns="http://www.w3.org/2000/svg">
<path d="M51.9128 37.6604C49.0629 37.2978 45.1083 37.2407 45.1083 33.4945C45.1083 31.7852 46.861 30.769 48.291 30.3152C50.1525 29.7246 52.6323 29.9857 54.1352 31.3019C56.9342 33.7531 55.4624 38.0622 53.8334 40.689C50.3216 46.3518 35.8088 52.0424 32.2126 43.3612C30.0119 38.0486 33.157 32.6359 35.6423 28.0404C39.777 20.3953 44.4944 13.0544 48.9495 5.59363" stroke="black" stroke-linecap="round"/>
<path d="M56.6055 20.6407L59.0748 24.8341" stroke="black" stroke-linecap="round"/>
<path d="M48.9492 18.1748C49.228 19.5225 49.5523 20.815 49.937 22.1215" stroke="black" stroke-linecap="round"/>
<path d="M65 8.80061C63.9621 8.87837 52.1123 10.942 53.4351 6.978C53.9955 5.29856 54.5721 3.68731 56.0005 2.55169C56.8762 1.85547 59.2677 0.343099 60.3905 1.31835C61.379 2.17695 59.6635 4.26736 59.1833 4.90873C57.2992 7.42487 53.9727 9.44064 51.144 10.6643C43.2586 14.0756 35.0363 15.4606 26.4777 15.4606" stroke="black" stroke-linecap="round"/>
<path d="M21.0451 36.9204C20.0174 34.7939 19.0966 32.1465 17.0804 30.6989C15.4787 29.549 12.981 29.6353 11.1264 29.8356C8.34992 30.1354 5.33206 32.6431 6.53063 35.7693C7.1908 37.4912 9.1026 39.0338 10.5365 40.0997C11.1238 40.5363 13.3043 41.2003 12.3474 41.6893C8.59161 43.6088 -0.84266 46.475 1.3175 52.4331C3.40108 58.18 10.8059 62.0347 16.1063 63.9991C24.3201 67.0431 32.0526 62.4573 39.5655 59.3672" stroke="black" stroke-linecap="round"/>
</svg>
