<svg width="106" height="40" viewBox="0 0 106 40" fill="none" xmlns="http://www.w3.org/2000/svg">
<path d="M1.52734 0L3.38813 1.83349V34.0615L1.52734 35.9364V0Z" fill="white"/>
<path d="M3.76074 2.2002L5.62153 3.80917V32.0909L3.76074 33.7363V2.2002Z" fill="white"/>
<path d="M5.99316 4.0332L7.85395 5.45509V30.4483L5.99316 31.9023V4.0332Z" fill="white"/>
<path d="M15.2976 12.834L16.4141 13.9341L8.97097 21.268L7.85449 20.168L15.2976 12.834Z" fill="white"/>
<path d="M16.7859 14.3008L17.9024 15.4009L10.4592 22.7348L9.34277 21.6347L16.7859 14.3008Z" fill="white"/>
<path d="M18.2752 15.7676L19.3917 16.8677L11.9485 24.2016L10.832 23.1015L18.2752 15.7676Z" fill="white"/>
<path d="M27.9691 38.5265L25.1548 38.5038L1.52672 15.4198L1.52673 12.4112L27.9691 38.5265Z" fill="white"/>
<path d="M24.7822 38.5068L21.805 38.5068L1.53561 18.3352L1.53561 15.7683L24.7822 38.5068Z" fill="white"/>
<path d="M21.4329 38.5031L18.6418 38.5031L1.52911 21.085L1.52913 18.7014L21.4329 38.5031Z" fill="white"/>
<path d="M38.76 8.136C38.76 8.728 38.6587 9.24533 38.456 9.688C38.2587 10.1253 37.9653 10.4667 37.576 10.712C37.1867 10.9573 36.704 11.08 36.128 11.08C35.536 11.08 35.0427 10.9573 34.648 10.712C34.2587 10.4667 33.968 10.1227 33.776 9.68C33.584 9.23733 33.488 8.72 33.488 8.128C33.488 7.54133 33.584 7.02933 33.776 6.592C33.968 6.15467 34.2587 5.81333 34.648 5.568C35.0427 5.32267 35.5387 5.2 36.136 5.2C36.7067 5.2 37.1867 5.32267 37.576 5.568C37.9653 5.808 38.2587 6.14933 38.456 6.592C38.6587 7.02933 38.76 7.544 38.76 8.136ZM34.248 8.136C34.248 8.856 34.4 9.424 34.704 9.84C35.008 10.2507 35.4827 10.456 36.128 10.456C36.7787 10.456 37.2533 10.2507 37.552 9.84C37.8507 9.424 38 8.856 38 8.136C38 7.416 37.8507 6.85333 37.552 6.448C37.2533 6.03733 36.7813 5.832 36.136 5.832C35.4907 5.832 35.0133 6.03733 34.704 6.448C34.4 6.85333 34.248 7.416 34.248 8.136ZM39.706 8.424C39.706 7.48533 39.8473 6.75467 40.13 6.232C40.4127 5.704 40.8687 5.37333 41.498 5.24C41.8447 5.16533 42.1833 5.09867 42.514 5.04C42.8447 4.98133 43.154 4.928 43.442 4.88L43.562 5.496C43.3753 5.52267 43.1647 5.55733 42.93 5.6C42.6953 5.63733 42.4633 5.67733 42.234 5.72C42.0047 5.75733 41.8073 5.79467 41.642 5.832C41.2953 5.90667 41.0207 6.088 40.818 6.376C40.6153 6.65867 40.5007 7.10133 40.474 7.704H40.522C40.5967 7.60267 40.698 7.49867 40.826 7.392C40.9593 7.28533 41.1167 7.19467 41.298 7.12C41.4847 7.04533 41.6953 7.008 41.93 7.008C42.4847 7.008 42.9033 7.18667 43.186 7.544C43.4687 7.90133 43.61 8.36533 43.61 8.936C43.61 9.41067 43.5273 9.808 43.362 10.128C43.1967 10.448 42.9673 10.688 42.674 10.848C42.3807 11.0027 42.0393 11.08 41.65 11.08C41.058 11.08 40.586 10.8533 40.234 10.4C39.882 9.94667 39.706 9.288 39.706 8.424ZM41.706 10.496C42.0527 10.496 42.3327 10.384 42.546 10.16C42.7593 9.936 42.866 9.552 42.866 9.008C42.866 8.57067 42.7833 8.22667 42.618 7.976C42.458 7.72 42.1913 7.592 41.818 7.592C41.5833 7.592 41.37 7.64533 41.178 7.752C40.986 7.85333 40.826 7.97067 40.698 8.104C40.57 8.23733 40.4793 8.34933 40.426 8.44C40.426 8.70133 40.4447 8.95467 40.482 9.2C40.5193 9.44533 40.5833 9.66667 40.674 9.864C40.77 10.056 40.9007 10.2107 41.066 10.328C41.2367 10.44 41.45 10.496 41.706 10.496ZM46.7591 6.632C47.2871 6.632 47.7111 6.816 48.0311 7.184C48.3564 7.552 48.5191 8.10667 48.5191 8.848C48.5191 9.57867 48.3564 10.1333 48.0311 10.512C47.7111 10.8907 47.2844 11.08 46.7511 11.08C46.4204 11.08 46.1457 11.0187 45.9271 10.896C45.7137 10.768 45.5457 10.6213 45.4231 10.456H45.3751C45.3857 10.5467 45.3964 10.6613 45.4071 10.8C45.4177 10.9387 45.4231 11.0587 45.4231 11.16V12.92H44.7191V6.712H45.2951L45.3911 7.296H45.4231C45.5511 7.10933 45.7191 6.952 45.9271 6.824C46.1351 6.696 46.4124 6.632 46.7591 6.632ZM46.6311 7.224C46.1937 7.224 45.8844 7.34667 45.7031 7.592C45.5271 7.83733 45.4337 8.21067 45.4231 8.712V8.848C45.4231 9.376 45.5084 9.784 45.6791 10.072C45.8551 10.3547 46.1777 10.496 46.6471 10.496C46.9084 10.496 47.1217 10.424 47.2871 10.28C47.4577 10.136 47.5831 9.94133 47.6631 9.696C47.7484 9.44533 47.7911 9.16 47.7911 8.84C47.7911 8.34933 47.6951 7.95733 47.5031 7.664C47.3164 7.37067 47.0257 7.224 46.6311 7.224ZM51.2649 6.64C51.7876 6.64 52.1743 6.75467 52.4249 6.984C52.6756 7.21333 52.8009 7.57867 52.8009 8.08V11H52.2889L52.1529 10.392H52.1209C51.9343 10.6267 51.7369 10.8 51.5289 10.912C51.3263 11.024 51.0436 11.08 50.6809 11.08C50.2916 11.08 49.9689 10.9787 49.7129 10.776C49.4569 10.568 49.3289 10.2453 49.3289 9.808C49.3289 9.38133 49.4969 9.05333 49.8329 8.824C50.1689 8.58933 50.6863 8.46133 51.3849 8.44L52.1129 8.416V8.16C52.1129 7.80267 52.0356 7.55467 51.8809 7.416C51.7263 7.27733 51.5076 7.208 51.2249 7.208C51.0009 7.208 50.7876 7.24267 50.5849 7.312C50.3823 7.376 50.1929 7.45067 50.0169 7.536L49.8009 7.008C49.9876 6.90667 50.2089 6.82133 50.4649 6.752C50.7209 6.67733 50.9876 6.64 51.2649 6.64ZM51.4729 8.928C50.9396 8.94933 50.5689 9.03467 50.3609 9.184C50.1583 9.33333 50.0569 9.544 50.0569 9.816C50.0569 10.056 50.1289 10.232 50.2729 10.344C50.4223 10.456 50.6116 10.512 50.8409 10.512C51.2036 10.512 51.5049 10.4133 51.7449 10.216C51.9849 10.0133 52.1049 9.704 52.1049 9.288V8.904L51.4729 8.928ZM55.2533 6.632C55.744 6.632 56.1333 6.73067 56.4213 6.928C56.7146 7.12 56.8613 7.39733 56.8613 7.76C56.8613 8.02133 56.7893 8.22933 56.6453 8.384C56.5013 8.53333 56.304 8.64267 56.0533 8.712V8.744C56.224 8.792 56.3813 8.85867 56.5253 8.944C56.6693 9.02933 56.784 9.14133 56.8693 9.28C56.96 9.41867 57.0053 9.59733 57.0053 9.816C57.0053 10.1733 56.856 10.4747 56.5573 10.72C56.264 10.96 55.8026 11.08 55.1733 11.08C54.864 11.08 54.584 11.0533 54.3333 11C54.0826 10.952 53.8746 10.8853 53.7093 10.8V10.168C53.8906 10.2533 54.104 10.3307 54.3493 10.4C54.6 10.4693 54.872 10.504 55.1653 10.504C55.4853 10.504 55.7546 10.4507 55.9733 10.344C56.1973 10.232 56.3093 10.0427 56.3093 9.776C56.3093 9.296 55.9013 9.056 55.0853 9.056H54.5093V8.48H54.9733C55.3413 8.48 55.6346 8.432 55.8533 8.336C56.0773 8.23467 56.1893 8.064 56.1893 7.824C56.1893 7.62133 56.104 7.46933 55.9333 7.368C55.768 7.26667 55.528 7.216 55.2133 7.216C54.9786 7.216 54.7706 7.24 54.5893 7.288C54.4133 7.33067 54.2186 7.39733 54.0053 7.488L53.7573 6.928C54.2053 6.73067 54.704 6.632 55.2533 6.632ZM61.7752 8.848C61.7752 9.55733 61.5939 10.1067 61.2312 10.496C60.8739 10.8853 60.3885 11.08 59.7752 11.08C59.3965 11.08 59.0579 10.9947 58.7592 10.824C58.4659 10.648 58.2339 10.3947 58.0632 10.064C57.8925 9.728 57.8072 9.32267 57.8072 8.848C57.8072 8.13867 57.9859 7.592 58.3432 7.208C58.7005 6.824 59.1859 6.632 59.7992 6.632C60.1885 6.632 60.5299 6.72 60.8232 6.896C61.1219 7.06667 61.3539 7.31733 61.5192 7.648C61.6899 7.97333 61.7752 8.37333 61.7752 8.848ZM58.5352 8.848C58.5352 9.35467 58.6339 9.75733 58.8312 10.056C59.0339 10.3493 59.3539 10.496 59.7912 10.496C60.2232 10.496 60.5405 10.3493 60.7432 10.056C60.9459 9.75733 61.0472 9.35467 61.0472 8.848C61.0472 8.34133 60.9459 7.944 60.7432 7.656C60.5405 7.368 60.2205 7.224 59.7832 7.224C59.3459 7.224 59.0285 7.368 58.8312 7.656C58.6339 7.944 58.5352 8.34133 58.5352 8.848ZM66.3389 7.792C66.3389 8.05867 66.2589 8.26667 66.0989 8.416C65.9389 8.56533 65.7336 8.66667 65.4829 8.72V8.752C65.7496 8.78933 65.9816 8.88533 66.1789 9.04C66.3763 9.18933 66.4749 9.424 66.4749 9.744C66.4749 10.1067 66.3389 10.408 66.0669 10.648C65.8003 10.8827 65.3576 11 64.7389 11H62.8909V6.712H64.7309C65.0349 6.712 65.3069 6.74667 65.5469 6.816C65.7923 6.88 65.9843 6.992 66.1229 7.152C66.2669 7.30667 66.3389 7.52 66.3389 7.792ZM65.6269 7.88C65.6269 7.67733 65.5523 7.53067 65.4029 7.44C65.2589 7.344 65.0216 7.296 64.6909 7.296H63.5949V8.472H64.5629C65.2723 8.472 65.6269 8.27467 65.6269 7.88ZM65.7469 9.744C65.7469 9.49867 65.6536 9.32267 65.4669 9.216C65.2803 9.10933 65.0056 9.056 64.6429 9.056H63.5949V10.432H64.6589C65.0109 10.432 65.2803 10.3813 65.4669 10.28C65.6536 10.1733 65.7469 9.99467 65.7469 9.744ZM69.1243 6.64C69.647 6.64 70.0336 6.75467 70.2843 6.984C70.535 7.21333 70.6603 7.57867 70.6603 8.08V11H70.1483L70.0123 10.392H69.9803C69.7936 10.6267 69.5963 10.8 69.3883 10.912C69.1856 11.024 68.903 11.08 68.5403 11.08C68.151 11.08 67.8283 10.9787 67.5723 10.776C67.3163 10.568 67.1883 10.2453 67.1883 9.808C67.1883 9.38133 67.3563 9.05333 67.6923 8.824C68.0283 8.58933 68.5456 8.46133 69.2443 8.44L69.9723 8.416V8.16C69.9723 7.80267 69.895 7.55467 69.7403 7.416C69.5856 7.27733 69.367 7.208 69.0843 7.208C68.8603 7.208 68.647 7.24267 68.4443 7.312C68.2416 7.376 68.0523 7.45067 67.8763 7.536L67.6603 7.008C67.847 6.90667 68.0683 6.82133 68.3243 6.752C68.5803 6.67733 68.847 6.64 69.1243 6.64ZM69.3323 8.928C68.799 8.94933 68.4283 9.03467 68.2203 9.184C68.0176 9.33333 67.9163 9.544 67.9163 9.816C67.9163 10.056 67.9883 10.232 68.1323 10.344C68.2816 10.456 68.471 10.512 68.7003 10.512C69.063 10.512 69.3643 10.4133 69.6043 10.216C69.8443 10.0133 69.9643 9.704 69.9643 9.288V8.904L69.3323 8.928ZM74.9447 7.304H73.5447V11H72.8487V7.304H71.4647V6.712H74.9447V7.304ZM77.3673 6.632C77.7353 6.632 78.0499 6.712 78.3113 6.872C78.5779 7.032 78.7806 7.25867 78.9193 7.552C79.0633 7.84 79.1353 8.17867 79.1353 8.568V8.992H76.1993C76.2099 9.47733 76.3326 9.848 76.5673 10.104C76.8073 10.3547 77.1406 10.48 77.5673 10.48C77.8393 10.48 78.0793 10.456 78.2873 10.408C78.5006 10.3547 78.7193 10.28 78.9433 10.184V10.8C78.7246 10.896 78.5086 10.9653 78.2953 11.008C78.0819 11.056 77.8286 11.08 77.5353 11.08C77.1299 11.08 76.7699 10.9973 76.4553 10.832C76.1459 10.6667 75.9033 10.4213 75.7273 10.096C75.5566 9.76533 75.4713 9.36267 75.4713 8.888C75.4713 8.41867 75.5486 8.016 75.7033 7.68C75.8633 7.344 76.0846 7.08533 76.3673 6.904C76.6553 6.72267 76.9886 6.632 77.3673 6.632ZM77.3593 7.208C77.0233 7.208 76.7566 7.31733 76.5593 7.536C76.3673 7.74933 76.2526 8.048 76.2153 8.432H78.3993C78.3939 8.06933 78.3086 7.776 78.1433 7.552C77.9779 7.32267 77.7166 7.208 77.3593 7.208ZM83.4909 11H82.7789V7.296H81.5149C81.4455 8.19733 81.3495 8.92533 81.2269 9.48C81.1042 10.0293 80.9415 10.4293 80.7389 10.68C80.5362 10.9307 80.2802 11.056 79.9709 11.056C79.9015 11.056 79.8322 11.0507 79.7629 11.04C79.6989 11.0347 79.6455 11.0213 79.6029 11V10.472C79.6349 10.4827 79.6695 10.4907 79.7069 10.496C79.7442 10.5013 79.7815 10.504 79.8189 10.504C80.1069 10.504 80.3362 10.1973 80.5069 9.584C80.6829 8.97067 80.8162 8.01333 80.9069 6.712H83.4909V11ZM86.8279 8.472C87.9425 8.472 88.4999 8.87733 88.4999 9.688C88.4999 10.088 88.3639 10.408 88.0919 10.648C87.8199 10.8827 87.3879 11 86.7959 11H84.8519V6.712H85.5559V8.472H86.8279ZM87.7959 9.728C87.7959 9.46667 87.7025 9.29067 87.5159 9.2C87.3345 9.104 87.0785 9.056 86.7479 9.056H85.5559V10.432H86.7639C87.0625 10.432 87.3079 10.3787 87.4999 10.272C87.6972 10.1653 87.7959 9.984 87.7959 9.728ZM90.3059 6.712V8.496H92.6339V6.712H93.3379V11H92.6339V9.088H90.3059V11H89.6019V6.712H90.3059ZM96.3196 6.64C96.8423 6.64 97.229 6.75467 97.4796 6.984C97.7303 7.21333 97.8556 7.57867 97.8556 8.08V11H97.3436L97.2076 10.392H97.1756C96.989 10.6267 96.7916 10.8 96.5836 10.912C96.381 11.024 96.0983 11.08 95.7356 11.08C95.3463 11.08 95.0236 10.9787 94.7676 10.776C94.5116 10.568 94.3836 10.2453 94.3836 9.808C94.3836 9.38133 94.5516 9.05333 94.8876 8.824C95.2236 8.58933 95.741 8.46133 96.4396 8.44L97.1676 8.416V8.16C97.1676 7.80267 97.0903 7.55467 96.9356 7.416C96.781 7.27733 96.5623 7.208 96.2796 7.208C96.0556 7.208 95.8423 7.24267 95.6396 7.312C95.437 7.376 95.2476 7.45067 95.0716 7.536L94.8556 7.008C95.0423 6.90667 95.2636 6.82133 95.5196 6.752C95.7756 6.67733 96.0423 6.64 96.3196 6.64ZM96.5276 8.928C95.9943 8.94933 95.6236 9.03467 95.4156 9.184C95.213 9.33333 95.1116 9.544 95.1116 9.816C95.1116 10.056 95.1836 10.232 95.3276 10.344C95.477 10.456 95.6663 10.512 95.8956 10.512C96.2583 10.512 96.5596 10.4133 96.7996 10.216C97.0396 10.0133 97.1596 9.704 97.1596 9.288V8.904L96.5276 8.928ZM99.444 11H98.628L99.852 9.2C99.6867 9.15733 99.5267 9.09067 99.372 9C99.2173 8.904 99.092 8.77333 98.996 8.608C98.9 8.43733 98.852 8.22667 98.852 7.976C98.852 7.56533 98.9907 7.25333 99.268 7.04C99.5453 6.82133 99.9133 6.712 100.372 6.712H102.292V11H101.588V9.296H100.548L99.444 11ZM99.532 7.984C99.532 8.22933 99.6227 8.41333 99.804 8.536C99.9907 8.65333 100.249 8.712 100.58 8.712H101.588V7.296H100.444C100.119 7.296 99.884 7.36 99.74 7.488C99.6013 7.616 99.532 7.78133 99.532 7.984ZM37.304 18.712V23H36.6V19.312H34.384V23H33.68V18.712H37.304ZM41.9362 23H41.2242V19.296H39.9602C39.8909 20.1973 39.7949 20.9253 39.6722 21.48C39.5495 22.0293 39.3869 22.4293 39.1842 22.68C38.9815 22.9307 38.7255 23.056 38.4162 23.056C38.3469 23.056 38.2775 23.0507 38.2082 23.04C38.1442 23.0347 38.0909 23.0213 38.0482 23V22.472C38.0802 22.4827 38.1149 22.4907 38.1522 22.496C38.1895 22.5013 38.2269 22.504 38.2642 22.504C38.5522 22.504 38.7815 22.1973 38.9522 21.584C39.1282 20.9707 39.2615 20.0133 39.3522 18.712H41.9362V23ZM44.9212 18.64C45.4439 18.64 45.8305 18.7547 46.0812 18.984C46.3319 19.2133 46.4572 19.5787 46.4572 20.08V23H45.9452L45.8092 22.392H45.7772C45.5905 22.6267 45.3932 22.8 45.1852 22.912C44.9825 23.024 44.6999 23.08 44.3372 23.08C43.9479 23.08 43.6252 22.9787 43.3692 22.776C43.1132 22.568 42.9852 22.2453 42.9852 21.808C42.9852 21.3813 43.1532 21.0533 43.4892 20.824C43.8252 20.5893 44.3425 20.4613 45.0412 20.44L45.7692 20.416V20.16C45.7692 19.8027 45.6919 19.5547 45.5372 19.416C45.3825 19.2773 45.1639 19.208 44.8812 19.208C44.6572 19.208 44.4439 19.2427 44.2412 19.312C44.0385 19.376 43.8492 19.4507 43.6732 19.536L43.4572 19.008C43.6439 18.9067 43.8652 18.8213 44.1212 18.752C44.3772 18.6773 44.6439 18.64 44.9212 18.64ZM45.1292 20.928C44.5959 20.9493 44.2252 21.0347 44.0172 21.184C43.8145 21.3333 43.7132 21.544 43.7132 21.816C43.7132 22.056 43.7852 22.232 43.9292 22.344C44.0785 22.456 44.2679 22.512 44.4972 22.512C44.8599 22.512 45.1612 22.4133 45.4012 22.216C45.6412 22.0133 45.7612 21.704 45.7612 21.288V20.904L45.1292 20.928ZM50.7416 19.304H49.3416V23H48.6456V19.304H47.2616V18.712H50.7416V19.304ZM54.0681 18.648C54.4948 18.6853 54.8655 18.7973 55.1801 18.984C55.5001 19.1707 55.7481 19.4213 55.9241 19.736C56.1001 20.0507 56.1881 20.424 56.1881 20.856C56.1881 21.5013 55.9988 22.016 55.6201 22.4C55.2468 22.784 54.7295 23.0053 54.0681 23.064V24.92H53.3801V23.064C52.9588 23.0267 52.5881 22.9173 52.2681 22.736C51.9481 22.5493 51.7001 22.2987 51.5241 21.984C51.3481 21.664 51.2601 21.288 51.2601 20.856C51.2601 20.2053 51.4468 19.688 51.8201 19.304C52.1988 18.92 52.7268 18.7013 53.4041 18.648V16.92H54.0681V18.648ZM53.4041 19.232C52.9135 19.28 52.5561 19.4427 52.3321 19.72C52.1081 19.992 51.9961 20.3707 51.9961 20.856C51.9961 21.3413 52.1081 21.7227 52.3321 22C52.5615 22.2773 52.9188 22.44 53.4041 22.488V19.232ZM54.0681 22.488C54.5481 22.4347 54.9001 22.2693 55.1241 21.992C55.3481 21.7147 55.4601 21.336 55.4601 20.856C55.4601 20.376 55.3455 20 55.1161 19.728C54.8921 19.456 54.5428 19.2933 54.0681 19.24V22.488ZM61.033 20.848C61.033 21.5573 60.8517 22.1067 60.489 22.496C60.1317 22.8853 59.6463 23.08 59.033 23.08C58.6543 23.08 58.3157 22.9947 58.017 22.824C57.7237 22.648 57.4917 22.3947 57.321 22.064C57.1503 21.728 57.065 21.3227 57.065 20.848C57.065 20.1387 57.2437 19.592 57.601 19.208C57.9583 18.824 58.4437 18.632 59.057 18.632C59.4463 18.632 59.7877 18.72 60.081 18.896C60.3797 19.0667 60.6117 19.3173 60.777 19.648C60.9477 19.9733 61.033 20.3733 61.033 20.848ZM57.793 20.848C57.793 21.3547 57.8917 21.7573 58.089 22.056C58.2917 22.3493 58.6117 22.496 59.049 22.496C59.481 22.496 59.7983 22.3493 60.001 22.056C60.2037 21.7573 60.305 21.3547 60.305 20.848C60.305 20.3413 60.2037 19.944 60.001 19.656C59.7983 19.368 59.4783 19.224 59.041 19.224C58.6037 19.224 58.2863 19.368 58.089 19.656C57.8917 19.944 57.793 20.3413 57.793 20.848ZM64.1888 18.632C64.7168 18.632 65.1408 18.816 65.4608 19.184C65.7861 19.552 65.9488 20.1067 65.9488 20.848C65.9488 21.5787 65.7861 22.1333 65.4608 22.512C65.1408 22.8907 64.7141 23.08 64.1808 23.08C63.8501 23.08 63.5754 23.0187 63.3568 22.896C63.1434 22.768 62.9754 22.6213 62.8528 22.456H62.8048C62.8154 22.5467 62.8261 22.6613 62.8368 22.8C62.8474 22.9387 62.8528 23.0587 62.8528 23.16V24.92H62.1488V18.712H62.7248L62.8208 19.296H62.8528C62.9808 19.1093 63.1488 18.952 63.3568 18.824C63.5648 18.696 63.8421 18.632 64.1888 18.632ZM64.0608 19.224C63.6234 19.224 63.3141 19.3467 63.1328 19.592C62.9568 19.8373 62.8634 20.2107 62.8528 20.712V20.848C62.8528 21.376 62.9381 21.784 63.1088 22.072C63.2848 22.3547 63.6074 22.496 64.0768 22.496C64.3381 22.496 64.5514 22.424 64.7168 22.28C64.8874 22.136 65.0128 21.9413 65.0928 21.696C65.1781 21.4453 65.2208 21.16 65.2208 20.84C65.2208 20.3493 65.1248 19.9573 64.9328 19.664C64.7461 19.3707 64.4554 19.224 64.0608 19.224ZM71.6706 18.712V23H71.0386V20.264C71.0386 20.152 71.0413 20.0347 71.0466 19.912C71.0573 19.7893 71.068 19.6693 71.0786 19.552H71.0546L69.6546 23H69.0626L67.7026 19.552H67.6786C67.6946 19.792 67.7026 20.0373 67.7026 20.288V23H67.0706V18.712H68.0066L69.3586 22.16L70.7346 18.712H71.6706ZM74.6634 18.64C75.186 18.64 75.5727 18.7547 75.8234 18.984C76.074 19.2133 76.1994 19.5787 76.1994 20.08V23H75.6874L75.5514 22.392H75.5194C75.3327 22.6267 75.1354 22.8 74.9274 22.912C74.7247 23.024 74.442 23.08 74.0794 23.08C73.69 23.08 73.3674 22.9787 73.1114 22.776C72.8554 22.568 72.7274 22.2453 72.7274 21.808C72.7274 21.3813 72.8954 21.0533 73.2314 20.824C73.5674 20.5893 74.0847 20.4613 74.7834 20.44L75.5114 20.416V20.16C75.5114 19.8027 75.434 19.5547 75.2794 19.416C75.1247 19.2773 74.906 19.208 74.6234 19.208C74.3994 19.208 74.186 19.2427 73.9834 19.312C73.7807 19.376 73.5914 19.4507 73.4154 19.536L73.1994 19.008C73.386 18.9067 73.6074 18.8213 73.8634 18.752C74.1194 18.6773 74.386 18.64 74.6634 18.64ZM74.8714 20.928C74.338 20.9493 73.9674 21.0347 73.7594 21.184C73.5567 21.3333 73.4554 21.544 73.4554 21.816C73.4554 22.056 73.5274 22.232 73.6714 22.344C73.8207 22.456 74.01 22.512 74.2394 22.512C74.602 22.512 74.9034 22.4133 75.1434 22.216C75.3834 22.0133 75.5034 21.704 75.5034 21.288V20.904L74.8714 20.928ZM37.944 35H37.08L34.496 32.104V35H33.776V29.288H34.496V32.056L37.016 29.288H37.832L35.352 32.064L37.944 35ZM37.9533 30.712H38.7053L39.6333 33.152C39.7133 33.3653 39.7853 33.5707 39.8493 33.768C39.9133 33.96 39.9613 34.144 39.9933 34.32H40.0253C40.0573 34.1867 40.108 34.0133 40.1773 33.8C40.2466 33.5813 40.3186 33.3627 40.3933 33.144L41.2653 30.712H42.0253L40.1773 35.592C40.028 35.9973 39.8333 36.32 39.5933 36.56C39.3586 36.8 39.0333 36.92 38.6173 36.92C38.4893 36.92 38.3773 36.912 38.2813 36.896C38.1853 36.8853 38.1026 36.872 38.0333 36.856V36.296C38.092 36.3067 38.1613 36.3173 38.2413 36.328C38.3266 36.3387 38.4146 36.344 38.5053 36.344C38.7506 36.344 38.948 36.2747 39.0973 36.136C39.252 35.9973 39.372 35.8133 39.4573 35.584L39.6813 35.016L37.9533 30.712ZM42.4794 32.424C42.4794 31.4853 42.6208 30.7547 42.9034 30.232C43.1861 29.704 43.6421 29.3733 44.2714 29.24C44.6181 29.1653 44.9568 29.0987 45.2874 29.04C45.6181 28.9813 45.9274 28.928 46.2154 28.88L46.3354 29.496C46.1488 29.5227 45.9381 29.5573 45.7034 29.6C45.4688 29.6373 45.2368 29.6773 45.0074 29.72C44.7781 29.7573 44.5808 29.7947 44.4154 29.832C44.0688 29.9067 43.7941 30.088 43.5914 30.376C43.3888 30.6587 43.2741 31.1013 43.2474 31.704H43.2954C43.3701 31.6027 43.4714 31.4987 43.5994 31.392C43.7328 31.2853 43.8901 31.1947 44.0714 31.12C44.2581 31.0453 44.4688 31.008 44.7034 31.008C45.2581 31.008 45.6768 31.1867 45.9594 31.544C46.2421 31.9013 46.3834 32.3653 46.3834 32.936C46.3834 33.4107 46.3008 33.808 46.1354 34.128C45.9701 34.448 45.7408 34.688 45.4474 34.848C45.1541 35.0027 44.8128 35.08 44.4234 35.08C43.8314 35.08 43.3594 34.8533 43.0074 34.4C42.6554 33.9467 42.4794 33.288 42.4794 32.424ZM44.4794 34.496C44.8261 34.496 45.1061 34.384 45.3194 34.16C45.5328 33.936 45.6394 33.552 45.6394 33.008C45.6394 32.5707 45.5568 32.2267 45.3914 31.976C45.2314 31.72 44.9648 31.592 44.5914 31.592C44.3568 31.592 44.1434 31.6453 43.9514 31.752C43.7594 31.8533 43.5994 31.9707 43.4714 32.104C43.3434 32.2373 43.2528 32.3493 43.1994 32.44C43.1994 32.7013 43.2181 32.9547 43.2554 33.2C43.2928 33.4453 43.3568 33.6667 43.4474 33.864C43.5434 34.056 43.6741 34.2107 43.8394 34.328C44.0101 34.44 44.2234 34.496 44.4794 34.496ZM49.1165 30.64C49.6392 30.64 50.0258 30.7547 50.2765 30.984C50.5272 31.2133 50.6525 31.5787 50.6525 32.08V35H50.1405L50.0045 34.392H49.9725C49.7858 34.6267 49.5885 34.8 49.3805 34.912C49.1778 35.024 48.8952 35.08 48.5325 35.08C48.1432 35.08 47.8205 34.9787 47.5645 34.776C47.3085 34.568 47.1805 34.2453 47.1805 33.808C47.1805 33.3813 47.3485 33.0533 47.6845 32.824C48.0205 32.5893 48.5378 32.4613 49.2365 32.44L49.9645 32.416V32.16C49.9645 31.8027 49.8872 31.5547 49.7325 31.416C49.5778 31.2773 49.3592 31.208 49.0765 31.208C48.8525 31.208 48.6392 31.2427 48.4365 31.312C48.2338 31.376 48.0445 31.4507 47.8685 31.536L47.6525 31.008C47.8392 30.9067 48.0605 30.8213 48.3165 30.752C48.5725 30.6773 48.8392 30.64 49.1165 30.64ZM49.3245 32.928C48.7912 32.9493 48.4205 33.0347 48.2125 33.184C48.0098 33.3333 47.9085 33.544 47.9085 33.816C47.9085 34.056 47.9805 34.232 48.1245 34.344C48.2738 34.456 48.4632 34.512 48.6925 34.512C49.0552 34.512 49.3565 34.4133 49.5965 34.216C49.8365 34.0133 49.9565 33.704 49.9565 33.288V32.904L49.3245 32.928ZM52.6809 30.712V32.496H55.0089V30.712H55.7129V35H55.0089V33.088H52.6809V35H51.9769V30.712H52.6809ZM57.0706 35V30.712H57.7746V32.472H58.8866C59.4413 32.472 59.852 32.5733 60.1186 32.776C60.3853 32.9787 60.5186 33.2827 60.5186 33.688C60.5186 34.088 60.388 34.408 60.1266 34.648C59.8653 34.8827 59.4413 35 58.8546 35H57.0706ZM61.2306 35V30.712H61.9346V35H61.2306ZM58.7906 34.432C59.0946 34.432 59.3426 34.3813 59.5346 34.28C59.7266 34.1733 59.8226 33.9893 59.8226 33.728C59.8226 33.4667 59.7346 33.2907 59.5586 33.2C59.3826 33.104 59.1293 33.056 58.7986 33.056H57.7746V34.432H58.7906ZM63.9132 32.272C63.9132 32.7627 64.1879 33.008 64.7372 33.008C65.0039 33.008 65.2465 32.968 65.4652 32.888C65.6839 32.8027 65.9079 32.6907 66.1372 32.552V30.712H66.8412V35H66.1372V33.088C65.8972 33.2427 65.6599 33.3653 65.4252 33.456C65.1959 33.5413 64.9185 33.584 64.5932 33.584C64.1559 33.584 63.8145 33.4693 63.5692 33.24C63.3292 33.0107 63.2092 32.704 63.2092 32.32V30.712H63.9132V32.272ZM69.8274 30.64C70.3501 30.64 70.7368 30.7547 70.9874 30.984C71.2381 31.2133 71.3634 31.5787 71.3634 32.08V35H70.8514L70.7154 34.392H70.6834C70.4968 34.6267 70.2994 34.8 70.0914 34.912C69.8888 35.024 69.6061 35.08 69.2434 35.08C68.8541 35.08 68.5314 34.9787 68.2754 34.776C68.0194 34.568 67.8914 34.2453 67.8914 33.808C67.8914 33.3813 68.0594 33.0533 68.3954 32.824C68.7314 32.5893 69.2488 32.4613 69.9474 32.44L70.6754 32.416V32.16C70.6754 31.8027 70.5981 31.5547 70.4434 31.416C70.2888 31.2773 70.0701 31.208 69.7874 31.208C69.5634 31.208 69.3501 31.2427 69.1474 31.312C68.9448 31.376 68.7554 31.4507 68.5794 31.536L68.3634 31.008C68.5501 30.9067 68.7714 30.8213 69.0274 30.752C69.2834 30.6773 69.5501 30.64 69.8274 30.64ZM70.0354 32.928C69.5021 32.9493 69.1314 33.0347 68.9234 33.184C68.7208 33.3333 68.6194 33.544 68.6194 33.816C68.6194 34.056 68.6914 34.232 68.8354 34.344C68.9848 34.456 69.1741 34.512 69.4034 34.512C69.7661 34.512 70.0674 34.4133 70.3074 34.216C70.5474 34.0133 70.6674 33.704 70.6674 33.288V32.904L70.0354 32.928Z" fill="white"/>
</svg>
