<svg width="40" height="40" viewBox="0 0 40 40" fill="none" xmlns="http://www.w3.org/2000/svg">
<path d="M0.98254 24.9286C1.20177 25.0811 1.43347 25.2149 1.67518 25.3286C1.96317 25.4759 2.44582 25.7225 2.47982 25.8952C2.52176 26.1231 2.49435 26.3583 2.40115 26.5705C2.30182 26.7838 2.19783 26.9672 2.10783 27.1252C1.86384 27.5565 1.45519 28.2791 2.07116 28.7824C2.21516 28.9158 2.46382 29.1084 2.69047 29.2824C2.52362 29.5742 2.44814 29.9093 2.47382 30.2444C2.50906 30.5082 2.65222 30.7455 2.86913 30.8997C3.01713 31.0043 3.17512 31.095 3.33112 31.1837C3.7251 31.4083 3.87909 31.513 3.93109 31.7216C3.96813 31.99 3.94537 32.2631 3.86443 32.5216C3.8251 32.6996 3.7871 32.8783 3.76443 33.0549C3.69823 33.6625 3.77329 34.2771 3.98376 34.8509C4.28355 35.9098 5.24126 36.6477 6.34167 36.6674C6.52539 36.6669 6.70857 36.6475 6.88831 36.6095C8.79276 36.158 10.6694 35.5964 12.5088 34.9275C14.0107 35.8088 14.9593 38.4887 15.2067 39.4947C15.2805 39.7921 15.5476 40.0008 15.854 40.0007L32.5867 39.954C32.7987 39.9536 32.9979 39.8523 33.1232 39.6812C33.2485 39.5101 33.2849 39.2896 33.2213 39.0874C33.0565 38.6357 32.8292 38.2093 32.546 37.8207C32.3861 37.5903 32.242 37.3493 32.1147 37.0994C31.8129 36.4888 31.5612 35.8548 31.362 35.2035C30.9865 33.9292 30.7246 32.6242 30.5794 31.3037C30.5575 31.0613 30.4054 30.8501 30.1824 30.7527C29.9595 30.6552 29.7011 30.687 29.5084 30.8356C29.3157 30.9841 29.2193 31.2259 29.2568 31.4663C29.4109 32.8659 29.6891 34.2491 30.0881 35.5995C30.3074 36.3161 30.5841 37.0139 30.9154 37.6861C31.0675 37.988 31.2401 38.2791 31.432 38.5574L31.4767 38.624L16.3579 38.6674C15.9154 37.086 15.1122 35.6288 14.0114 34.4102L14.6113 34.2002C15.058 34.0442 15.3946 33.9269 15.5673 33.8716C18.4232 32.9683 19.8511 31.6676 19.8125 30.005C19.813 29.8274 19.7408 29.6573 19.6125 29.5343C19.4843 29.4114 19.3113 29.3464 19.1338 29.3544C18.7659 29.3631 18.4746 29.6684 18.4832 30.0364C18.4992 30.7223 17.9372 31.723 15.166 32.5996C14.9853 32.6576 14.6373 32.7789 14.1754 32.9403C13.68 33.1136 13.0501 33.3336 12.3554 33.5696H12.3508C10.4747 34.2573 8.56048 34.836 6.61766 35.3028C5.996 35.4226 5.39057 35.0305 5.24571 34.4142C5.10329 34.035 5.0497 33.6281 5.08905 33.2249C5.10638 33.0849 5.13838 32.9463 5.16904 32.8069C5.30488 32.3458 5.32481 31.8583 5.22704 31.3877C5.03249 30.7762 4.58235 30.2791 3.99309 30.025L3.85443 29.9457C3.92641 29.8004 4.01237 29.6624 4.11109 29.5337C4.22292 29.392 4.27251 29.211 4.24851 29.0321C4.22451 28.8532 4.12898 28.6917 3.98376 28.5844C3.82376 28.4671 3.44644 28.1844 3.17046 27.9618C3.20245 27.9038 3.23712 27.8398 3.27045 27.7818C3.37511 27.5985 3.49444 27.3851 3.6111 27.1385C3.82206 26.6712 3.8842 26.1503 3.7891 25.6465C3.6291 24.8332 2.85047 24.4346 2.28182 24.1439C2.0906 24.0534 1.9073 23.9471 1.73384 23.8259C1.5909 23.7299 1.45701 23.621 1.33386 23.5006C1.33386 23.4 1.44186 23.156 1.94984 22.5367C3.14369 21.0003 4.16678 19.3386 5.00105 17.5809C5.15845 17.3054 5.24696 16.9959 5.25904 16.6789C5.19018 16.0088 4.83509 15.4012 4.28508 15.0123C4.01509 14.765 3.7611 14.5316 3.73177 14.3163C3.73622 14.1583 3.77155 14.0027 3.83576 13.8583C3.94443 13.5723 4.06975 13.2924 4.19575 13.0117C4.46911 12.4481 4.68744 11.8593 4.84772 11.2538L4.91439 10.9698C5.05576 10.3033 5.23787 9.64606 5.4597 9.00185C5.98521 7.55141 6.79885 6.22234 7.85161 5.09467C9.12689 3.74539 11.1341 2.79076 13.8274 2.25545C15.8875 1.8032 17.9778 1.50196 20.0818 1.35415C21.1311 1.29734 22.1835 1.35703 23.2197 1.53214C23.5779 1.58583 23.9134 1.34373 23.9753 0.98689C24.0373 0.630054 23.803 0.289036 23.4477 0.218858C22.3134 0.0260987 21.1613 -0.039638 20.0125 0.0228656C17.8433 0.173319 15.688 0.48258 13.5641 0.948163C10.5582 1.54814 8.37359 2.6021 6.88231 4.17804C5.70596 5.43677 4.79642 6.92047 4.20842 8.53987C3.96834 9.2367 3.77109 9.94755 3.61777 10.6685L3.55111 10.9498C3.40883 11.4726 3.218 11.981 2.98113 12.4684C2.8478 12.7724 2.70914 13.0764 2.58981 13.391C2.43633 13.7415 2.3755 14.1255 2.41315 14.5063C2.54768 15.1032 2.89273 15.6317 3.38511 15.9949C3.7111 16.2942 3.92509 16.5049 3.92776 16.6882C3.90363 16.7898 3.86525 16.8874 3.81376 16.9782C3.01513 18.6608 2.03609 20.2516 0.893877 21.7227C0.411896 22.31 -0.0927514 22.9946 0.0145778 23.6793C0.155778 24.2091 0.504777 24.6595 0.98254 24.9286Z" fill="#2C3E50"/>
<path d="M7.44525 11.8643L7.51191 11.5677C7.62876 11.0134 7.77722 10.4663 7.95656 9.92905C8.35805 8.81609 8.98025 7.79572 9.78582 6.92917C10.6498 6.11453 11.7073 5.5338 12.8584 5.2419C13.0908 5.17641 13.2696 4.99037 13.3258 4.75557C13.3821 4.52076 13.307 4.27389 13.1295 4.1102C12.952 3.9465 12.6999 3.89158 12.4704 3.96661C11.0967 4.3236 9.83825 5.02871 8.81653 6.01387C7.88816 7.01186 7.17096 8.18709 6.70794 9.46907C6.50793 10.0608 6.34298 10.6638 6.21396 11.275L6.1473 11.5637C6.0641 11.922 6.28698 12.2801 6.64528 12.3636C6.69488 12.3753 6.74566 12.3811 6.79661 12.381C7.10666 12.3805 7.37549 12.1664 7.44525 11.8643Z" fill="#2C3E50"/>
<path d="M6.0016 14.6691C6.36978 14.6691 6.66824 14.3706 6.66824 14.0025C6.66824 13.6343 6.36978 13.3358 6.0016 13.3358C5.63343 13.3358 5.33496 13.6343 5.33496 14.0025C5.33496 14.3706 5.63343 14.6691 6.0016 14.6691Z" fill="#2C3E50"/>
<path d="M18.0009 13.4762C17.9552 15.7489 18.7584 17.9571 20.2534 19.6693C20.724 20.1583 21.2372 20.6045 21.7867 21.0026C22.762 21.7566 23.686 22.4772 23.9313 23.4799C23.1697 23.7813 22.6688 24.5167 22.6674 25.3358V26.6691C22.6709 27.5136 23.2044 28.2648 24.0006 28.5463V28.669C24.0006 30.1417 25.1945 31.3356 26.6672 31.3356C28.1399 31.3356 29.3338 30.1417 29.3338 28.669V28.5463C30.13 28.2648 30.6635 27.5136 30.667 26.6691V25.3358C30.6651 24.516 30.1631 23.7804 29.4004 23.4799C29.6451 22.4799 30.5697 21.7566 31.545 21.0026C32.0944 20.6043 32.6075 20.1581 33.0783 19.6693C34.5739 17.9572 35.378 15.7492 35.3335 13.4762C35.3149 8.67468 31.4678 4.76545 26.6672 4.66992C21.8666 4.76545 18.0195 8.67468 18.0009 13.4762ZM24.6673 14.6695H24.0006C23.6325 14.6695 23.334 14.3711 23.334 14.0029C23.334 13.6347 23.6325 13.3363 24.0006 13.3363C24.3688 13.3363 24.6673 13.6347 24.6673 14.0029V14.6695ZM27.3338 23.3359H26.0006V16.0028H27.3338V23.3359ZM26.6672 30.0023C25.9308 30.0023 25.3339 29.4053 25.3339 28.669H28.0005C28.0005 29.4053 27.4035 30.0023 26.6672 30.0023ZM29.3338 26.6691C29.3338 27.0372 29.0353 27.3357 28.6671 27.3357H24.6673C24.2991 27.3357 24.0006 27.0372 24.0006 26.6691V25.3358C24.0006 24.9676 24.2991 24.6691 24.6673 24.6691H28.6671C29.0353 24.6691 29.3338 24.9676 29.3338 25.3358V26.6691ZM34.0002 13.4969C34.0417 15.4326 33.3614 17.3144 32.0917 18.776C31.6735 19.2048 31.2192 19.5967 30.7337 19.9473C29.9477 20.4949 29.2507 21.1602 28.6671 21.9199V16.0028H29.3338C30.4383 16.0028 31.3337 15.1074 31.3337 14.0029C31.3337 12.8984 30.4383 12.003 29.3338 12.003C28.2292 12.003 27.3338 12.8984 27.3338 14.0029V14.6695H26.0006V14.0029C26.0006 12.8984 25.1052 12.003 24.0006 12.003C22.8961 12.003 22.0007 12.8984 22.0007 14.0029C22.0007 15.1074 22.8961 16.0028 24.0006 16.0028H24.6673V21.9199C24.0848 21.1606 23.3889 20.4955 22.604 19.948C22.1183 19.5971 21.6638 19.205 21.2454 18.776C19.9744 17.315 19.293 15.433 19.3341 13.4969C19.4008 9.4344 22.7553 6.0032 26.6672 6.0032C30.579 6.0032 33.9369 9.4344 34.0002 13.4969ZM28.6671 14.6695V14.0029C28.6671 13.6347 28.9656 13.3363 29.3338 13.3363C29.7019 13.3363 30.0004 13.6347 30.0004 14.0029C30.0004 14.3711 29.7019 14.6695 29.3338 14.6695H28.6671Z" fill="#2C3E50"/>
<path d="M37.3336 14.0022H39.3336C39.7017 14.0022 40.0002 13.7038 40.0002 13.3356C40.0002 12.9674 39.7017 12.6689 39.3336 12.6689H37.3336C36.9655 12.6689 36.667 12.9674 36.667 13.3356C36.667 13.7038 36.9655 14.0022 37.3336 14.0022Z" fill="#2C3E50"/>
<path d="M34.2092 6.46118C34.3862 6.46132 34.556 6.39104 34.6812 6.26585L36.0951 4.85124C36.2684 4.68387 36.3379 4.43601 36.2769 4.20293C36.2159 3.96985 36.0339 3.78783 35.8008 3.72682C35.5677 3.66581 35.3199 3.73531 35.1525 3.90861L33.7379 5.32256C33.5468 5.51315 33.4895 5.80014 33.5927 6.0495C33.6959 6.29886 33.9393 6.46139 34.2092 6.46118Z" fill="#2C3E50"/>
<path d="M26.6676 3.33613C27.0358 3.33613 27.3343 3.03767 27.3343 2.66949V0.669571C27.3343 0.301395 27.0358 0.00292969 26.6676 0.00292969C26.2994 0.00292969 26.001 0.301395 26.001 0.669571V2.66949C26.001 3.03767 26.2994 3.33613 26.6676 3.33613Z" fill="#2C3E50"/>
<path d="M19.5969 6.26585C19.7221 6.14081 19.7924 5.97114 19.7924 5.79421C19.7924 5.61727 19.7221 5.4476 19.5969 5.32256L18.1823 3.90861C18.0149 3.73531 17.7671 3.66581 17.534 3.72682C17.3009 3.78783 17.1189 3.96985 17.0579 4.20293C16.9969 4.43601 17.0664 4.68387 17.2397 4.85124L18.6536 6.26585C18.7787 6.39103 18.9483 6.46137 19.1253 6.46137C19.3022 6.46137 19.4719 6.39103 19.5969 6.26585Z" fill="#2C3E50"/>
<path d="M14.0016 12.6689C13.6334 12.6689 13.335 12.9674 13.335 13.3356C13.335 13.7038 13.6334 14.0022 14.0016 14.0022H16.0015C16.3697 14.0022 16.6682 13.7038 16.6682 13.3356C16.6682 12.9674 16.3697 12.6689 16.0015 12.6689H14.0016Z" fill="#2C3E50"/>
</svg>
